<?xml version="1.0" encoding="UTF-8"?>
<!DOCTYPE svg PUBLIC "-//W3C//DTD SVG 1.1//EN" "http://www.w3.org/Graphics/SVG/1.1/DTD/svg11.dtd">
<!-- Creator: CorelDRAW -->
<svg xmlns="http://www.w3.org/2000/svg" xml:space="preserve" width="270.933mm" height="270.933mm" version="1.1" style="shape-rendering:geometricPrecision; text-rendering:geometricPrecision; image-rendering:optimizeQuality; fill-rule:evenodd; clip-rule:evenodd"
viewBox="0 0 27093.32 27093.32"
 xmlns:xlink="http://www.w3.org/1999/xlink"
 xmlns:xodm="http://www.corel.com/coreldraw/odm/2003">
 <defs>
  <style type="text/css">
   <![CDATA[
    .str4 {stroke:#121631;stroke-width:449.79;stroke-miterlimit:22.9256}
    .str6 {stroke:#374244;stroke-width:238.12;stroke-linecap:round;stroke-linejoin:round;stroke-miterlimit:22.9256}
    .str5 {stroke:#4781B3;stroke-width:317.5;stroke-linecap:round;stroke-linejoin:round;stroke-miterlimit:22.9256}
    .str2 {stroke:#121631;stroke-width:264.58;stroke-linecap:round;stroke-linejoin:round;stroke-miterlimit:22.9256}
    .str7 {stroke:#FCFCFC;stroke-width:132.29;stroke-linecap:round;stroke-linejoin:round;stroke-miterlimit:22.9256}
    .str0 {stroke:#121631;stroke-width:449.79;stroke-linecap:round;stroke-linejoin:round;stroke-miterlimit:22.9256}
    .str3 {stroke:#764C3E;stroke-width:264.58;stroke-linecap:square;stroke-linejoin:bevel;stroke-miterlimit:22.9256}
    .str1 {stroke:#255D96;stroke-width:264.58;stroke-linecap:round;stroke-linejoin:round;stroke-miterlimit:22.9256;stroke-dasharray:529.160000 529.160000}
    .fil2 {fill:none}
    .fil4 {fill:#121631}
    .fil1 {fill:#255D96}
    .fil0 {fill:#4781B3}
    .fil11 {fill:#6F7478}
    .fil10 {fill:#878F92}
    .fil9 {fill:#898E92}
    .fil7 {fill:#A6ABAF}
    .fil8 {fill:#D2D6DF}
    .fil5 {fill:#EBAE99}
    .fil3 {fill:#FBFBFB}
    .fil6 {fill:#FCFBFB}
    .fil12 {fill:#FCFCFC}
   ]]>
  </style>
 </defs>
 <g id="Layer_x0020_1">
  <metadata id="CorelCorpID_0Corel-Layer"/>
  <g id="finR">
   <path id="body" class="fil0" d="M12688.37 11247.31c0,0 -835.46,815.77 -1491.41,1140.69 -655.94,324.92 -1153.61,555.28 -1806.24,790.52 -652.63,235.23 -746.27,856.99 28.89,1241.38 775.16,384.39 1778.21,634.6 2887.59,468.58 1109.39,-166.03 1219.93,-288.57 1219.93,-288.57l-838.76 -3352.6z"/>
   <path id="shadow" class="fil1" d="M12688.37 11247.31c0,0 -835.46,815.77 -1491.41,1140.69 -655.94,324.92 -1153.61,555.28 -1806.24,790.52 -652.63,235.23 -746.27,856.99 28.89,1241.38 775.16,384.39 1778.21,634.6 2887.59,468.58 1109.39,-166.03 1219.93,-288.57 1219.93,-288.57l-838.76 -3352.6z"/>
   <path id="edge" class="fil2 str0" d="M12688.37 11247.31c0,0 -835.46,815.77 -1491.41,1140.69 -655.94,324.92 -1153.61,555.28 -1806.24,790.52 -652.63,235.23 -746.27,856.99 28.89,1241.38 775.16,384.39 1778.21,634.6 2887.59,468.58 1109.39,-166.03 1219.93,-288.57 1219.93,-288.57"/>
  </g>
  <g id="shark">
   <g id="body_10">
    <path id="finT" class="fil1" d="M20987.55 16728.79c677.2,191.39 754.78,114.96 1459.46,815.38 290.01,288.27 374.55,642.49 779.88,558.59 338.07,-69.98 378.2,-504.49 355.7,-1104.44 -22.5,-599.95 -206.83,-1671.62 -534.74,-2561.64 -327.91,-890.02 -1428.17,-2551.94 -1482.18,-2138.02l-578.12 4430.13z"/>
    <path id="base" class="fil0" d="M9021.05 19010.83c-713.87,-713.89 -2018.96,-1818.68 -2816.58,-2047.03 -797.62,-228.35 -1970.08,-427.28 -2189.4,-89.88 -219.32,337.4 244.86,1169.8 1217.13,1817.57 972.27,647.77 1744.34,939 2000.54,1057.73 256.2,118.73 -702.89,814.24 -1028.27,1807.86 -325.38,993.62 -403.22,2047.35 286.83,2421.48 690.05,374.13 1499.18,-318.66 2061.85,-1158.01 562.67,-839.35 650.27,-1790.46 757.16,-1772.65 106.89,17.81 2001.38,516.65 3426.64,543.37 1425.26,26.72 3388.6,-13.24 4933.09,-607.48 1544.49,-594.24 3028.3,-2181.12 3619.59,-3632.45 591.29,-1451.33 852.47,-2889.99 832.22,-5046.14 -20.25,-2156.15 -499.33,-4772.61 -1101.63,-6232.11 -602.3,-1459.5 -2343.48,-4008.18 -4298.98,-3927.81 -1955.5,80.37 -4024.75,3152.8 -4661.05,5461.64 -700.59,2542.13 -451.63,4682.16 23.63,6956.09 542.67,2596.48 -3062.77,4447.82 -3062.77,4447.82z"/>
    <path id="shadow_11" class="fil1" d="M18132.32 18397.36c0,0 -586.43,664.34 -1202.54,1054.34 -616.11,390 -205.46,56.83 0,187.85 205.46,131.02 467.48,358.1 -12.9,672.54 -480.38,314.44 -2335.66,1081.73 -5308.32,963.47 -3105.11,-123.54 -4550.11,-3828.53 -4710.76,-4463.4l11234.52 1585.2z"/>
    <path id="curve" class="fil2 str1" d="M18600.82 2782.34c-290.31,-100.71 -589.3,-151.83 -893.46,-139.33 -1091.85,44.87 -2219.16,1022.55 -3112.7,2279.23"/>
    <path id="belly" class="fil3" d="M14631.87 3709.62c1424.07,171.04 2205.72,2770.01 2211.93,7990.58 5.58,4693.84 -1438.46,5611.51 -2607.69,5624.1 -1301,14.01 -2563.14,-2426.48 -2610.73,-6469.05 -47.42,-4028.08 2111.03,-7253.18 3006.49,-7145.63z"/>
    <path id="gill" class="fil2 str2" d="M17154.83 11229.59c0,0 1080.45,181.15 1850.35,-58.23m-1751.88 906.92c0,0 850.81,195.69 1803.71,38.29m-1833.39 770.55c0,0 788.49,267.07 1781.56,48.89"/>
   </g>
   <g id="eye">
    <ellipse id="eye_12" class="fil4" cx="17282.57" cy="8294.69" rx="419.35" ry="525.42"/>
    <ellipse id="eye_13" class="fil3" cx="17285" cy="8015.89" rx="212.7" ry="266.5"/>
   </g>
   <g id="mouth">
    <path id="body_14" class="fil5" d="M12793.28 5822.58c275.86,129.84 830.32,419.19 1173.24,789.58 470.78,508.5 1184.76,1436.99 1522.86,2497.96 338.1,1060.98 201.99,1866.66 -573.61,880.76 -775.6,-985.91 -1749.61,-1913.39 -2869.25,-2171.8 127.89,-688.86 381.73,-1353.41 746.76,-1996.5z"/>
    <path id="teeth" class="fil6 str3" d="M12775.03 5804.33c560.33,252.55 894.8,369.92 1848.79,1622.8 953.99,1252.88 904.31,1966.6 904.31,1966.6l-119.63 134.31c0,0 -465.1,-49.73 -581.52,-373.83 -126.3,-351.6 169.22,-644.05 169.22,-644.05 0,0 -487.58,41.68 -677.57,-263.39 -189.99,-305.07 128.49,-773.1 128.49,-773.1 0,0 -476.72,233.83 -741.3,-50.23 -264.58,-284.06 40.48,-806.59 40.48,-806.59 0,0 -361.96,397.16 -727.55,240.48 -365.59,-156.68 -265.53,-796.97 -265.53,-796.97l21.81 -256.03z"/>
    <path id="edge_15" class="fil2 str4" d="M12626.28 5747.92c0,0 869.45,355.73 1340.24,864.24 470.78,508.5 1184.76,1436.99 1522.86,2497.96 338.1,1060.98 201.99,1866.66 -573.61,880.76 -775.6,-985.91 -1749.61,-1913.39 -2869.25,-2171.8"/>
   </g>
   <g id="edge_16">
    <path id="finT_17" class="fil2 str4" d="M21459.46 16854.39c304.67,87.75 489.48,194.71 987.55,689.78 290.01,288.26 374.55,642.49 779.88,558.59 338.07,-69.98 378.2,-504.49 355.7,-1104.44 -22.5,-599.95 -206.83,-1671.62 -534.74,-2561.64 -175.23,-475.61 -571.01,-1171.65 -909.83,-1653.54"/>
    <path id="curve_18" class="fil2 str5" d="M12010.73 7609.34c-329.67,1196.21 -449.08,2303.41 -433.6,3377.4m389.11 -1641.59l-684.74 287.65m733.92 -937.6l-684.74 196.13"/>
    <path id="top" class="fil2 str0" d="M22067.62 14013.65c98.33,-513.62 60.08,-1084.84 54.23,-1708.45 -20.25,-2156.14 -499.33,-4772.61 -1101.63,-6232.11 -602.3,-1459.5 -2343.48,-4008.18 -4298.98,-3927.81 -1955.5,80.37 -4024.75,3152.8 -4661.05,5461.64 -41.73,151.41 -80.09,301.41 -115.23,450.07m-302.63 2097.94c-80.39,1510.77 132.82,2931.19 441.49,4408.08 542.67,2596.47 -3062.77,4447.82 -3062.77,4447.82m0 0c-713.87,-713.89 -1992.87,-1818.68 -2816.58,-2047.03 -823.71,-228.35 -1970.08,-427.28 -2189.4,-89.88 -219.32,337.4 244.86,1169.8 1217.13,1817.57 972.27,647.77 1744.34,939 2000.54,1057.73 256.2,118.73 -702.89,814.24 -1028.27,1807.86 -325.38,993.62 -403.22,2047.35 286.83,2421.48 690.05,374.13 1499.18,-318.66 2061.85,-1158.01 562.67,-839.35 650.27,-1790.46 757.16,-1772.65 106.89,17.81 2001.38,516.65 3426.64,543.37 1425.26,26.72 3388.6,-13.24 4933.09,-607.48 1544.49,-594.24 3028.31,-2181.12 3619.59,-3632.45 108.64,-266.66 227.33,-539.22 280.71,-818.04"/>
   </g>
  </g>
  <g id="Laptop">
   <g id="surfaceC">
    <path id="body_19" class="fil7" d="M10489.67 20461.09c448.74,445.37 1218.14,295.46 1615.01,269.01 396.87,-26.45 4028.3,-707.75 4504.55,-787.12 476.25,-79.37 497.03,-415.22 238.12,-687.92l-4318.48 -4548.45c-142.46,-150.06 -297.78,-166.33 -445.05,-143.6l-4873.93 752.65 3279.78 5145.43z"/>
    <polygon id="sideL" class="fil8" points="10323.34,20461.09 10899.25,20702.55 11643.68,20775.56 13641.11,20479.3 16771.39,19900.06 17012.21,19583.76 16847.35,19319.64 12774.74,20039.68 11598.43,20181.79 10975.8,20135.33 10531.27,20095.2 "/>
    <path id="sideLT" class="fil2 str6" d="M10486.88 19871.39c448.74,445.37 1218.14,295.46 1615.01,269.01 333,-22.19 2943.17,-505.41 4056.05,-707.26"/>
    <path id="edge_20" class="fil2 str0" d="M10489.67 20461.09c448.74,445.37 1218.14,295.46 1615.01,269.01 396.87,-26.45 4028.3,-707.75 4504.55,-787.12 476.25,-79.37 497.03,-415.22 238.12,-687.92l-4318.48 -4548.45c-142.46,-150.06 -297.78,-166.33 -445.05,-143.6l-4873.93 752.65 3279.78 5145.43z"/>
   </g>
   <g id="input">
    <path id="touchpad" class="fil9" d="M12375.18 16350.78l736.05 783.87c47.12,50.17 117.94,64.06 211.21,50.22l745.18 -110.55c84.65,-12.56 127.88,-80.76 66.7,-144.96l-745.03 -781.63c-49.02,-51.44 -77.62,-63.71 -217.47,-39.05l-740.94 130.68c-69.41,12.23 -102.61,61.47 -55.7,111.42z"/>
    <path id="keyboard" class="fil10" d="M11089.75 15325.47l3182.9 3501.93c105.73,116.32 96.67,325.45 -147.46,365.07l-2377.95 386.03c-282.3,45.82 -521.73,52.8 -715.51,-159l-3030.01 -3311.48 3088.03 -782.55z"/>
    <path id="button" class="fil11" d="M9293.37 16921.87l137.15 -51.82c65.68,-24.82 171.7,12.24 223.27,73.29l1947.21 2305.59c51.58,61.06 45.42,126.01 -23.64,138.21l-137.15 24.24c-100.17,17.7 -171.34,-12.53 -223.27,-73.29l-1947.22 -2278.02c-51.93,-60.76 -42.03,-113.38 23.65,-138.2zm584.36 -106.51l320.12 -84.16c67.91,-17.85 171.69,12.23 223.27,73.29l1947.21 2305.59c51.59,61.07 45.44,126.01 -23.64,138.21l-320.12 56.58c-100.19,17.71 -171.33,-12.52 -223.27,-73.29l-1947.22 -2278.02c-51.94,-60.77 -44.25,-120.35 23.65,-138.2zm745.41 -131.54l320.12 -84.16c67.91,-17.85 171.69,12.23 223.27,73.29l1947.21 2305.59c51.59,61.07 45.44,126.01 -23.64,138.21l-320.12 56.58c-100.19,17.71 -171.33,-12.52 -223.27,-73.29l-1947.22 -2278.02c-51.94,-60.77 -44.25,-120.35 23.65,-138.2zm695.66 -207.36l373 -76.53c68.78,-14.11 170.17,13.52 223.27,73.29l1149.11 1293.72c53.11,59.78 45.48,126.08 -23.64,138.21l-384.04 67.43c-69.13,12.13 -170.25,-13.43 -223.27,-73.29l-1138.08 -1284.63c-53.02,-59.85 -45.12,-124.09 23.65,-138.2zm-547.96 -564.54l357.48 -93.99c67.91,-17.85 168.48,15.05 223.27,73.29l270.9 288.03c54.79,58.25 45.13,124.11 -23.64,138.21l-373 76.52c-68.76,14.1 -168.38,-15.13 -223.27,-73.29l-255.39 -270.57c-54.89,-58.16 -44.25,-120.35 23.65,-138.2z"/>
   </g>
   <path id="surfaceA" class="fil8 str0" d="M6566.49 10205.43l4284.65 4135.13c158.36,140.32 158.36,257.64 158.36,456.49l-479.12 5307.98c-83.19,400.39 -297.44,472.46 -604.5,168.5 -573.54,-567.75 -1089.02,-1235.53 -1620.46,-1836.76 -652.3,-737.97 -1268.62,-1509.45 -1956.95,-2213.95 -53.19,-54.44 -89.2,-91.65 -111.9,-145.61 -22.7,-53.95 -32.1,-124.67 -32.1,-246.15l163.86 -5513.29c-17.15,-172.24 43.81,-217.94 198.16,-112.34z"/>
   <g id="logos">
    <polygon id="lightning" class="fil12 str7" points="9311.48,14410.88 7818.85,15097.2 8375.99,15472 7636.07,16232.14 9212.94,15577.28 8639.54,15191.56 "/>
   </g>
  </g>
  <g id="finL">
   <path id="body_21" class="fil0" d="M17150.1 14476.2c0,0 -978.37,954.12 -1746.51,1334.14 -768.14,380.02 -1350.93,649.45 -2115.19,924.58 -764.26,275.13 -873.92,1002.33 33.83,1451.91 907.75,449.58 2082.36,742.22 3381.5,548.04 1299.14,-194.18 1428.59,-337.51 1428.59,-337.51l-982.22 -3921.16z"/>
   <path class="fil2 str1" d="M12682.54 17483.79c0,0 1722.26,351.45 3335.09,-131.54 1612.83,-482.99 2369.96,-1398.38 2369.96,-1398.38"/>
   <path id="edge_22" class="fil2 str0" d="M17150.1 14476.2c0,0 -978.37,954.12 -1746.51,1334.14 -768.14,380.02 -1350.93,649.45 -2115.19,924.58 -764.26,275.13 -873.92,1002.33 33.83,1451.91 907.75,449.58 2082.36,742.22 3381.5,548.04 1299.14,-194.18 1428.59,-337.51 1428.59,-337.51"/>
  </g>
 </g>
</svg>
