<svg
  xmlns="http://www.w3.org/2000/svg"
  viewBox="0 0 1024 1024"
  width="24"
  height="24"
  fill="#000000"
>
  <path d="M923.2 672H800l-238.4-137.6h-1.6V416h68.16A75.84 75.84 0 0 0 704 340.16V107.84A75.84 75.84 0 0 0 628.16 32h-232.32A75.84 75.84 0 0 0 320 107.84v232.64A75.84 75.84 0 0 0 395.84 416h68.16v117.76h-1.6L224 672H100.8A69.12 69.12 0 0 0 32 740.8v182.4A69.12 69.12 0 0 0 100.8 992h182.4A69.12 69.12 0 0 0 352 923.2v-182.4a67.84 67.84 0 0 0-6.4-28.16l164.48-96h3.2l164.48 96a67.84 67.84 0 0 0-6.4 28.16v182.4A69.12 69.12 0 0 0 740.8 992h182.4A69.12 69.12 0 0 0 992 923.2v-182.4A69.12 69.12 0 0 0 923.2 672z"/>
</svg>
